<?xml version="1.0" standalone="yes"?>

<svg version="1.1" viewBox="0.0 0.0 100.0 100.0" fill="none" stroke="none" stroke-linecap="square" stroke-miterlimit="10" xmlns="http://www.w3.org/2000/svg" xmlns:xlink="http://www.w3.org/1999/xlink"><clipPath id="p.0"><path d="m0 0l100.0 0l0 100.0l-100.0 0l0 -100.0z" clip-rule="nonzero"></path></clipPath><g clip-path="url(#p.0)"><path fill="#000000" fill-opacity="0.0" d="m0 0l100.0 0l0 100.0l-100.0 0z" fill-rule="evenodd"></path><path fill="#000000" fill-opacity="0.0" d="m15.71664 49.99916l0 0c0 -18.934233 15.34923 -34.283463 34.283466 -34.283463l0 0c9.092537 0 17.812675 3.6119976 24.242065 10.041393c6.4293976 6.4293976 10.041397 15.149532 10.041397 24.24207l0 0c0 18.934235 -15.349228 34.283463 -34.283463 34.283463l0 0c-18.934237 0 -34.283466 -15.349228 -34.283466 -34.283463z" fill-rule="evenodd"></path><path stroke="#000000" stroke-width="3.0" stroke-linejoin="round" stroke-linecap="butt" d="m15.71664 49.99916l0 0c0 -18.934233 15.34923 -34.283463 34.283466 -34.283463l0 0c9.092537 0 17.812675 3.6119976 24.242065 10.041393c6.4293976 6.4293976 10.041397 15.149532 10.041397 24.24207l0 0c0 18.934235 -15.349228 34.283463 -34.283463 34.283463l0 0c-18.934237 0 -34.283466 -15.349228 -34.283466 -34.283463z" fill-rule="evenodd"></path><path fill="#000000" d="m44.63769 52.54416l1.6875 -0.140625q0.125 1.015625 0.5625 1.671875q0.4375 0.65625 1.359375 1.0625q0.9375 0.40625 2.09375 0.40625q1.03125 0 1.8125 -0.3125q0.796875 -0.3125 1.1875 -0.84375q0.390625 -0.53125 0.390625 -1.15625q0 -0.640625 -0.375 -1.109375q-0.375 -0.484375 -1.234375 -0.8125q-0.546875 -0.21875 -2.421875 -0.65625q-1.875 -0.453125 -2.625 -0.859375q-0.96875 -0.515625 -1.453125 -1.265625q-0.46875 -0.75 -0.46875 -1.6875q0 -1.03125 0.578125 -1.921875q0.59375 -0.90625 1.703125 -1.359375q1.125 -0.46875 2.5 -0.46875q1.515625 0 2.671875 0.484375q1.15625 0.484375 1.765625 1.4375q0.625 0.9375 0.671875 2.140625l-1.71875 0.125q-0.140625 -1.28125 -0.953125 -1.9375q-0.796875 -0.671875 -2.359375 -0.671875q-1.625 0 -2.375 0.609375q-0.75 0.59375 -0.75 1.4375q0 0.734375 0.53125 1.203125q0.515625 0.46875 2.703125 0.96875q2.203125 0.5 3.015625 0.875q1.1875 0.546875 1.75 1.390625q0.578125 0.828125 0.578125 1.921875q0 1.09375 -0.625 2.0625q-0.625 0.953125 -1.796875 1.484375q-1.15625 0.53125 -2.609375 0.53125q-1.84375 0 -3.09375 -0.53125q-1.25 -0.546875 -1.96875 -1.625q-0.703125 -1.078125 -0.734375 -2.453125z" fill-rule="nonzero"></path><path fill="#000000" fill-opacity="0.0" d="m23.35433 50.0l0 0c0 -14.715996 11.929674 -26.64567 26.64567 -26.64567l0 0c7.0668716 0 13.844299 2.8073044 18.841331 7.8043365c4.997032 4.997034 7.8043365 11.774462 7.8043365 18.841333l0 0c0 14.715996 -11.929672 26.645668 -26.645668 26.645668l0 0c-14.715996 0 -26.64567 -11.929672 -26.64567 -26.645668z" fill-rule="evenodd"></path><path stroke="#000000" stroke-width="3.0" stroke-linejoin="round" stroke-linecap="butt" d="m23.35433 50.0l0 0c0 -14.715996 11.929674 -26.64567 26.64567 -26.64567l0 0c7.0668716 0 13.844299 2.8073044 18.841331 7.8043365c4.997032 4.997034 7.8043365 11.774462 7.8043365 18.841333l0 0c0 14.715996 -11.929672 26.645668 -26.645668 26.645668l0 0c-14.715996 0 -26.64567 -11.929672 -26.64567 -26.645668z" fill-rule="evenodd"></path></g></svg>

