<?xml version="1.0" standalone="yes"?>

<svg version="1.1" viewBox="0.0 0.0 100.0 100.0" fill="none" stroke="none" stroke-linecap="square" stroke-miterlimit="10" xmlns="http://www.w3.org/2000/svg" xmlns:xlink="http://www.w3.org/1999/xlink"><clipPath id="p.0"><path d="m0 0l100.0 0l0 100.0l-100.0 0l0 -100.0z" clip-rule="nonzero"></path></clipPath><g clip-path="url(#p.0)"><path fill="#000000" fill-opacity="0.0" d="m0 0l100.0 0l0 100.0l-100.0 0z" fill-rule="evenodd"></path><path fill="#000000" fill-opacity="0.0" d="m9.874016 50.0l80.25197 0" fill-rule="evenodd"></path><path stroke="#000000" stroke-width="3.0" stroke-linejoin="round" stroke-linecap="butt" d="m9.874016 50.0l62.25197 0" fill-rule="evenodd"></path><path fill="#000000" stroke="#000000" stroke-width="3.0" stroke-linecap="butt" d="m72.125984 54.955196l13.614296 -4.9551964l-13.614296 -4.9551964z" fill-rule="evenodd"></path><path fill="#000000" fill-opacity="0.0" d="m25.874016 21.674541l48.25197 0l0 29.669292l-48.25197 0z" fill-rule="evenodd"></path><path fill="#000000" d="m35.67089 34.819542l0 -1.21875l1.0625 0l0 1.21875l-1.0625 0zm0 7.375l0 -6.21875l1.0625 0l0 6.21875l-1.0625 0zm6.3125 2.53125l0 -11.265625l0.90625 0l0 11.265625l-0.90625 0zm6.123047 -9.890625l0 -1.234375l1.0625 0l0 1.234375l-1.0625 0zm-1.328125 9.78125l0.1875 -0.90625q0.328125 0.078125 0.5 0.078125q0.328125 0 0.484375 -0.21875q0.15625 -0.203125 0.15625 -1.0625l0 -6.53125l1.0625 0l0 6.5625q0 1.140625 -0.296875 1.59375q-0.390625 0.59375 -1.265625 0.59375q-0.4375 0 -0.828125 -0.109375z" fill-rule="nonzero"></path></g></svg>

